<?xml version="1.0" encoding="UTF-8" standalone="no"?>
<!-- Created with Inkscape (http://www.inkscape.org/) -->

<svg
   width="13.916006mm"
   height="13.935571mm"
   viewBox="0 0 13.916006 13.935571"
   version="1.1"
   id="svg1"
   xml:space="preserve"
   xmlns:inkscape="http://www.inkscape.org/namespaces/inkscape"
   xmlns:sodipodi="http://sodipodi.sourceforge.net/DTD/sodipodi-0.dtd"
   xmlns="http://www.w3.org/2000/svg"
   xmlns:svg="http://www.w3.org/2000/svg"><sodipodi:namedview
     id="namedview1"
     pagecolor="#ffffff"
     bordercolor="#000000"
     borderopacity="0.25"
     inkscape:showpageshadow="2"
     inkscape:pageopacity="0.0"
     inkscape:pagecheckerboard="0"
     inkscape:deskcolor="#d1d1d1"
     inkscape:document-units="mm" /><defs
     id="defs1" /><g
     inkscape:label="Camada 1"
     inkscape:groupmode="layer"
     id="layer1"
     transform="translate(-0.05503919,-0.17925798)"><path
       style="fill:#8caf28"
       d="m 5.5449391,13.965002 c -8.26436,-2.15169 -6.8021,-13.77717026 1.73398,-13.78574026 5.8575399,-0.006 8.8707299,7.18875996 4.8668299,11.62060026 -1.56903,1.73672 -4.5237799,2.70592 -6.6008099,2.16514 z m 3.33395,-1.38834 c 4.0182299,-1.34535 5.2219599,-6.5877503 2.1995199,-9.5791703 -4.8420899,-4.79238 -12.5200399,1.3675 -8.9340799,7.1676503 1.35697,2.19486 4.26817,3.2373 6.73456,2.41152 z m -4.68043,-5.6604603 1.19968,-0.0649 0.9905,1.34187 c 0,0 2.661818,-3.5229 2.635005,-3.5175 h 1.1723249 c -1.2353479,1.75252 -2.5506489,3.44253 -3.9292199,5.08432 z"
       id="path8"
       sodipodi:nodetypes="ccscssssccccccc" /></g></svg>
